<svg xmlns="http://www.w3.org/2000/svg" width="16" height="16" viewBox="0 0 16 16">
    <defs>
        <filter id="8u0yy0k35a">
            <feColorMatrix in="SourceGraphic" values="0 0 0 0 0.388235 0 0 0 0 0.388235 0 0 0 0 0.388235 0 0 0 1.000000 0"/>
        </filter>
    </defs>
    <g fill="none" fill-rule="evenodd">
        <g>
            <g>
                <g>
                    <g>
                        <g filter="url(#8u0yy0k35a)" transform="translate(-678 -1652) translate(273 1291) translate(0 318) translate(0 31) translate(405 12)">
                            <path fill="#333" fill-rule="nonzero" d="M7.19 1.422L1 7.612l1 1 6.191-6.19c1.344-1.344 3.534-1.344 4.878 0 1.344 1.344 1.344 3.533 0 4.877l-3.134 3.135-.002-.002-3.424 3.423c-.822.822-2.26.822-3.08 0-.412-.41-.639-.958-.639-1.539 0-.582.227-1.128.639-1.54l2.057-2.058.002.002 4.231-4.232c.31-.31.853-.308 1.164 0 .32.32.32.844 0 1.165L5.266 11.27l1 1 5.618-5.617c.871-.872.871-2.292 0-3.165-.846-.844-2.322-.845-3.165 0L5.262 6.946l-.002-.002-2.83 2.832c-.68.678-1.054 1.582-1.054 2.54 0 .96.374 1.863 1.054 2.541.678.678 1.58 1.053 2.541 1.053.96 0 1.862-.374 2.54-1.053l3.055-3.055.002.003 3.503-3.503c1.894-1.897 1.894-4.982 0-6.879-1.898-1.897-4.983-1.898-6.88-.001z"/>
                        </g>
                    </g>
                </g>
            </g>
        </g>
    </g>
</svg>
