<svg width="24" height="25" viewBox="0 0 24 25" fill="none" xmlns="http://www.w3.org/2000/svg">
<path d="M11.3333 18.5H12.6667V13.1667H18V11.8333H12.6667V6.5H11.3333V11.8333H6V13.1667H11.3333V18.5ZM12.0043 24.5C10.345 24.5 8.78489 24.1851 7.324 23.5553C5.86333 22.9256 4.59267 22.0709 3.512 20.9913C2.43133 19.9118 1.57589 18.6422 0.945667 17.1827C0.315222 15.7233 0 14.1639 0 12.5043C0 10.845 0.314889 9.28489 0.944667 7.824C1.57444 6.36333 2.42911 5.09267 3.50867 4.012C4.58822 2.93133 5.85778 2.07589 7.31733 1.44567C8.77667 0.815222 10.3361 0.5 11.9957 0.5C13.655 0.5 15.2151 0.81489 16.676 1.44467C18.1367 2.07445 19.4073 2.92911 20.488 4.00867C21.5687 5.08822 22.4241 6.35778 23.0543 7.81733C23.6848 9.27667 24 10.8361 24 12.4957C24 14.155 23.6851 15.7151 23.0553 17.176C22.4256 18.6367 21.5709 19.9073 20.4913 20.988C19.4118 22.0687 18.1422 22.9241 16.6827 23.5543C15.2233 24.1848 13.6639 24.5 12.0043 24.5ZM12 23.1667C14.9778 23.1667 17.5 22.1333 19.5667 20.0667C21.6333 18 22.6667 15.4778 22.6667 12.5C22.6667 9.52222 21.6333 7 19.5667 4.93333C17.5 2.86667 14.9778 1.83333 12 1.83333C9.02222 1.83333 6.5 2.86667 4.43333 4.93333C2.36667 7 1.33333 9.52222 1.33333 12.5C1.33333 15.4778 2.36667 18 4.43333 20.0667C6.5 22.1333 9.02222 23.1667 12 23.1667Z" fill="#B50000"/>
</svg>
