<svg xmlns="http://www.w3.org/2000/svg" width="112" height="3" viewBox="0 0 112 3">
    <g fill="none" fill-rule="evenodd">
        <g fill="#AEAEAE">
            <path d="M199.995 129.5c-1.265 0-1.923-.444-2.503-.836-.529-.356-.985-.664-1.943-.664-.957 0-1.413.308-1.941.664-.58.392-1.238.836-2.501.836s-1.92-.444-2.5-.836c-.528-.356-.983-.664-1.94-.664-.958 0-1.414.308-1.942.664-.58.392-1.237.836-2.501.836-1.263 0-1.92-.444-2.5-.836-.528-.356-.984-.664-1.941-.664-.957 0-1.413.308-1.941.664-.58.392-1.238.836-2.501.836s-1.921-.444-2.5-.836c-.528-.356-.984-.664-1.94-.664-.957 0-1.412.308-1.94.664-.579.392-1.236.836-2.498.836-1.263 0-1.921-.444-2.5-.836-.528-.356-.984-.664-1.941-.664-.956 0-1.411.308-1.938.664-.579.392-1.236.836-2.498.836-1.263 0-1.92-.444-2.499-.836-.528-.356-.983-.664-1.94-.664-.958 0-1.413.308-1.941.664-.58.392-1.237.836-2.5.836-1.264 0-1.921-.444-2.501-.836-.527-.356-.983-.664-1.94-.664s-1.412.308-1.94.664c-.58.392-1.236.836-2.499.836-1.263 0-1.92-.444-2.5-.836-.528-.356-.983-.664-1.94-.664s-1.412.308-1.94.664c-.58.392-1.237.836-2.5.836s-1.92-.444-2.499-.836c-.528-.356-.984-.664-1.94-.664-.957 0-1.412.308-1.94.664-.579.392-1.236.836-2.499.836-1.262 0-1.92-.444-2.499-.836-.528-.356-.984-.664-1.941-.664-.956 0-1.411.308-1.938.664-.58.392-1.237.836-2.499.836-1.263 0-1.92-.444-2.5-.836-.528-.356-.983-.664-1.94-.664-.956 0-1.412.308-1.939.664-.579.392-1.236.836-2.499.836-1.262 0-1.919-.444-2.498-.836-.527-.356-.983-.664-1.939-.664-.956 0-1.412.308-1.939.664-.58.392-1.236.836-2.5.836-1.262 0-1.919-.444-2.499-.836-.526-.356-.982-.664-1.938-.664v-1c1.263 0 1.919.444 2.499.836.527.356.982.664 1.938.664.957 0 1.412-.308 1.94-.664.58-.392 1.237-.836 2.499-.836 1.263 0 1.92.444 2.499.836.527.356.982.664 1.938.664s1.412-.308 1.939-.664c.579-.392 1.237-.836 2.499-.836 1.264 0 1.92.444 2.5.836.528.356.983.664 1.94.664.956 0 1.411-.308 1.938-.664.58-.392 1.237-.836 2.499-.836 1.263 0 1.921.444 2.5.836.528.356.984.664 1.94.664.957 0 1.412-.308 1.94-.664.579-.392 1.236-.836 2.499-.836 1.263 0 1.92.444 2.499.836.528.356.984.664 1.94.664.957 0 1.412-.308 1.94-.664.58-.392 1.236-.836 2.5-.836 1.263 0 1.92.444 2.5.836.527.356.983.664 1.94.664s1.412-.308 1.94-.664c.579-.392 1.236-.836 2.499-.836 1.263 0 1.92.444 2.5.836.528.356.983.664 1.941.664.957 0 1.413-.308 1.94-.664.58-.392 1.237-.836 2.501-.836 1.263 0 1.92.444 2.499.836.528.356.983.664 1.94.664.956 0 1.411-.308 1.938-.664.579-.392 1.236-.836 2.498-.836 1.264 0 1.921.444 2.5.836.528.356.984.664 1.941.664.956 0 1.411-.308 1.938-.664.58-.392 1.237-.836 2.5-.836 1.262 0 1.92.444 2.499.836.528.356.984.664 1.941.664.957 0 1.413-.308 1.941-.664.58-.392 1.237-.836 2.501-.836 1.263 0 1.921.444 2.501.836.527.356.983.664 1.94.664.958 0 1.414-.308 1.942-.664.58-.392 1.237-.836 2.501-.836 1.263 0 1.92.444 2.5.836.528.356.983.664 1.94.664s1.413-.308 1.941-.664c.58-.392 1.238-.836 2.501-.836 1.264 0 1.922.443 2.502.835.528.357.985.665 1.944.665s1.264 1 0 1z" transform="translate(-89 -127)"/>
        </g>
    </g>
</svg>
