<?xml version="1.0" encoding="UTF-8"?>
<svg width="16px" height="16px" viewBox="0 0 16 16" version="1.1" xmlns="http://www.w3.org/2000/svg" xmlns:xlink="http://www.w3.org/1999/xlink">
    <title>7ECDBC33-AB05-4CCB-B675-E549FC5B4FD6</title>
    <defs>
        <filter id="filter-1">
            <feColorMatrix in="SourceGraphic" type="matrix" values="0 0 0 0 1.000000 0 0 0 0 1.000000 0 0 0 0 1.000000 0 0 0 1.000000 0"></feColorMatrix>
        </filter>
    </defs>
    <g id="Symbols" stroke="none" stroke-width="1" fill="none" fill-rule="evenodd">
        <g id="Icon/Streaming" filter="url(#filter-1)">
            <g transform="translate(0.000000, 3.000000)">
                <path d="M1.01927058,0.262001106 C1.14158305,0.0326652241 1.42697882,-0.0715783584 1.65121835,0.0535139406 C1.89584329,0.157757523 1.97738493,0.449639554 1.85507246,0.678975436 C1.24351011,1.92989843 0.937728938,3.26421628 0.937728938,4.681929 C0.937728938,6.09964173 1.26389552,7.43395958 1.83468705,8.68488257 C1.95699952,8.93506717 1.85507246,9.20610048 1.63083294,9.33119278 C1.5696767,9.3520415 1.48813505,9.37289022 1.42697882,9.37289022 C1.26389552,9.37289022 1.10081223,9.26864663 1.01927058,9.1018569 C0.346551999,7.72584161 0,6.24558274 0,4.681929 C0,3.11827527 0.346551999,1.63801639 1.01927058,0.262001106 Z M14.0430005,0.0535139406 C14.2876254,-0.0715783584 14.5526358,0.0326652241 14.6749482,0.262001106 C15.3476668,1.63801639 15.6738334,3.11827527 15.6738334,4.681929 C15.6738334,6.24558274 15.3272814,7.74669033 14.6545628,9.1018569 C14.5730212,9.24779792 14.4099379,9.3520415 14.2468546,9.3520415 C14.1856984,9.3520415 14.1041567,9.3520415 14.0430005,9.31034407 C13.8187609,9.18525177 13.7168339,8.89336974 13.8391464,8.66403386 C14.4507087,7.43395958 14.7564899,6.09964173 14.7564899,4.681929 C14.7564899,3.26421628 14.4507087,1.92989843 13.8391464,0.699824152 C13.7168339,0.449639554 13.8187609,0.17860624 14.0430005,0.0535139406 Z M11.3331019,1.38781095 C11.5575453,1.28356737 11.8427372,1.36696223 11.9446643,1.59629811 C12.4137326,2.55533907 12.6581537,3.5977749 12.6581537,4.68190816 C12.6581537,5.76604141 12.4137326,6.82932595 11.9446643,7.7675182 C11.8633265,7.91345921 11.7002432,8.0177028 11.5369561,8.0177028 C11.4757998,8.0177028 11.394462,8.0177028 11.3331019,7.97600536 C11.1088624,7.85091306 11.0069353,7.55903103 11.1292478,7.32969515 C11.5369561,6.49574649 11.7408102,5.6201004 11.7408102,4.68190816 C11.7408102,3.74371591 11.5369561,2.86806982 11.1292478,2.03412116 C11.0069353,1.78393656 11.1088624,1.51290325 11.3331019,1.38781095 Z M3.64896831,1.59629811 C3.77128078,1.36696223 4.05667654,1.26271865 4.28091607,1.38781095 C4.52554101,1.51290325 4.60708266,1.80478528 4.46438477,2.03412116 C4.05667654,2.86806982 3.85282242,3.74371591 3.85282242,4.68190816 C3.85282242,5.6201004 4.05667654,6.49574649 4.46438477,7.32969515 C4.58669724,7.57987975 4.48477019,7.85091306 4.26053066,7.97600536 C4.19937442,7.99685408 4.11783278,8.0177028 4.05667654,8.0177028 C3.89359325,8.0177028 3.73050995,7.93430793 3.64896831,7.7675182 C3.18010384,6.80847724 2.9354789,5.7451927 2.9354789,4.68190816 C2.9354789,3.61862361 3.18010384,2.53449036 3.64896831,1.59629811 Z M7.85730195,2.5188017 C8.95610808,2.5188017 9.84360534,3.43727491 9.84360534,4.55024834 C9.84360534,5.66322177 8.94554264,6.58169498 7.85730195,6.58169498 C6.76906127,6.58169498 5.87099857,5.67402733 5.87099857,4.55024834 C5.87099857,3.42646935 6.76906127,2.5188017 7.85730195,2.5188017 Z" id="Fill-10" fill="#000000"></path>
            </g>
        </g>
    </g>
</svg>