<?xml version="1.0" encoding="UTF-8"?>
<svg width="30px" height="40px" viewBox="0 0 30 40" version="1.1" xmlns="http://www.w3.org/2000/svg" xmlns:xlink="http://www.w3.org/1999/xlink">
    <title>187AA6C8-9E32-43A7-8443-E6CE814A3B33</title>
    <defs>
        <path d="M0.4188,1.09515152 L0.4188,10.8375758 L3.0336,10.8375758 L3.0336,2.47151515 C3.3354,2.27454545 3.9888,2.17636364 4.4412,2.17636364 C5.8998,2.17636364 6.201,2.96242424 6.201,4.29272727 L6.201,10.789697 L8.8656,10.789697 L8.8656,4.04727273 C8.8656,3.50606061 8.8158,3.01454545 8.7144,2.52060606 C8.529,1.80060606 8.1858,1.16 7.557,0.699393939 C7.0032,0.356363636 6.1494,0.108484848 4.9932,0.108484848 C3.3354,0.109090909 1.575,0.454545455 0.4188,1.09515152" id="path-1"></path>
        <path d="M2.9208,7.49757576 C2.9208,6.41575758 3.3234,6.07090909 4.2276,5.87272727 C4.9824,5.6769697 5.6208,5.6769697 6.4242,5.62727273 L6.4242,8.62848485 C5.8212,8.87515152 5.334,8.92424335 4.7298,8.92424335 C3.5742,8.92484848 2.9208,8.62848485 2.9208,7.49757576 M0.8922,0.639393939 L0.903,2.72787879 C2.0316,2.35212121 3.207,2.18181818 4.4646,2.18181818 C5.8728,2.18181818 6.426,2.72424242 6.426,3.95393939 C5.2188,4.0030303 4.38,4.0030303 3.273,4.19939394 C1.161,4.49515152 0.3564,5.6769697 0.3564,7.54606061 C0.3564,9.81030303 1.839,10.9781818 4.4292,10.9909091 C6.3396,10.9909091 7.833,10.6472727 8.9904,10.0066667 L8.9904,3.51030303 C8.9904,0.754545455 7.0278,0.115151515 4.6656,0.115151515 C3.1062,0.115151515 1.9026,0.35030303 0.8922,0.639393939" id="path-3"></path>
        <path d="M0.4854,5.42 C0.4854,8.27393939 1.0386,10.9806061 4.6086,10.9806061 C6.0168,10.9806061 7.7082,10.7018182 8.6124,10.4569697 L8.6094,8.20363636 C7.956,8.35030303 6.7536,8.63575758 6.0996,8.63575758 C3.4344,8.63575758 3.1998,7.73333333 3.1998,5.37030303 C3.1998,2.86121212 3.6366,2.18787879 6.0996,2.25212121 C6.9192,2.27272727 7.4814,2.37878788 8.5968,2.71151515 L8.6112,0.579393939 C7.8576,0.383030303 6.4176,0.0557575758 5.211,0.0557575758 C1.2906,0.0563636364 0.4854,1.97515152 0.4854,5.42" id="path-5"></path>
        <polygon id="path-7" points="11.5104 0.524242424 0.4746 26.3509091 7.455 26.3509091 18.4902 0.524242424"></polygon>
        <polygon id="path-9" points="0.1104 0.524242424 11.145 26.3509091 18.126 26.3509091 7.0902 0.524242424"></polygon>
    </defs>
    <g id="Symbols" stroke="none" stroke-width="1" fill="none" fill-rule="evenodd">
        <g id="logo">
            <g id="Clipped" transform="translate(10.200000, 28.484848)">
                <mask id="mask-2" fill="white">
                    <use xlink:href="#path-1"></use>
                </mask>
                <g id="SVGID_1_"></g>
                <rect id="Rectangle" fill="#FFFFFF" fill-rule="nonzero" mask="url(#mask-2)" x="0.4188" y="0.109090909" width="8.4474" height="10.7284848"></rect>
            </g>
            <g id="Clipped" transform="translate(20.400000, 28.484848)">
                <mask id="mask-4" fill="white">
                    <use xlink:href="#path-3"></use>
                </mask>
                <g id="SVGID_4_"></g>
                <rect id="Rectangle" fill="#FFFFFF" fill-rule="nonzero" mask="url(#mask-4)" x="0.357" y="0.115151515" width="8.634" height="10.8751515"></rect>
            </g>
            <g id="Clipped" transform="translate(0.000000, 28.484848)">
                <mask id="mask-6" fill="white">
                    <use xlink:href="#path-5"></use>
                </mask>
                <g id="SVGID_7_"></g>
                <rect id="Rectangle" fill="#FFFFFF" fill-rule="nonzero" mask="url(#mask-6)" x="0.4854" y="0.0563636364" width="8.127" height="10.9242424"></rect>
            </g>
            <polygon id="Path" fill="#FFFFFF" fill-rule="nonzero" points="26.5674 19.4224242 29.4954 26.3557576 10.5138 26.3557576"></polygon>
            <g id="Clipped">
                <mask id="mask-8" fill="white">
                    <use xlink:href="#path-7"></use>
                </mask>
                <g id="SVGID_10_"></g>
                <rect id="Rectangle" fill="#FFFFFF" fill-rule="nonzero" mask="url(#mask-8)" x="0.4746" y="0.524242424" width="18.0162" height="25.8266667"></rect>
            </g>
            <g id="Clipped" transform="translate(11.400000, 0.000000)">
                <mask id="mask-10" fill="white">
                    <use xlink:href="#path-9"></use>
                </mask>
                <g id="SVGID_13_"></g>
                <polygon id="Path" fill="#FFFFFF" fill-rule="nonzero" mask="url(#mask-10)" points="9.1176 -8.57454545 30.9096 13.4369697 9.1176 35.449697 -12.6744 13.4369697"></polygon>
            </g>
        </g>
    </g>
</svg>